PathFileType	4	(X/Y/Z)	/Users/niels/Desktop/University/Third Semester/Perception and Action/Exam/Gymnastics Motion Tracking/Code for Gym Tracking/Analyzed Data/Webcam_Backflip/id2005_1_baseline_Sports2D/id2005_1_baseline_Sports2D_px_person00.trc
DataRate	CameraRate	NumFrames	NumMarkers	Units	OrigDataRate	OrigDataStartFrame	OrigNumFrames
29.75	29.75	13	22	m	29.75	105	120
Frame#	Time	Hip			RHip			RKnee			RAnkle			RBigToe			RSmallToe			RHeel			LHip			LKnee			LAnkle			LBigToe			LSmallToe			LHeel			Neck			Head			Nose			RShoulder			RElbow			RWrist			LShoulder			LElbow			LWrist		
		X1	Y1	Z1	X2	Y2	Z2	X3	Y3	Z3	X4	Y4	Z4	X5	Y5	Z5	X6	Y6	Z6	X7	Y7	Z7	X8	Y8	Z8	X9	Y9	Z9	X10	Y10	Z10	X11	Y11	Z11	X12	Y12	Z12	X13	Y13	Z13	X14	Y14	Z14	X15	Y15	Z15	X16	Y16	Z16	X17	Y17	Z17	X18	Y18	Z18	X19	Y19	Z19	X20	Y20	Z20	X21	Y21	Z21	X22	Y22	Z22
105	3.5294117647058822	0.9002907467368438	-1.0658137097014917	0.0	0.6730067205761365	-1.008838339619653	0.0	1.1208400890510173	-0.8543250861307948	0.0	0.7607597660958171	-0.9239511719887826	0.0			0.0	1.4493984375	-0.841671875	0.0	1.0383134766265654	-1.0138623047175677	0.0	1.130912914738555	-0.9806282547908115	0.0	1.4690406855159623	-0.947657097997755	0.0	1.1828027343749346	-0.8070253906248355	0.0	1.5495991427102664	-0.8359161970581506	0.0	1.2518017578126155	-0.5681826171893871	0.0	1.2259321548803794	-1.0032961619990612	0.0	0.9191033464518324	-0.7170131963638781	0.0	0.9215152572010356	-0.2149752576248031	0.0	0.9362404204434221	-0.41134308554411203	0.0	0.47434339499638295	-0.9226837881026999	0.0	0.2847007423051305	-1.06565232061229	0.0	0.7141588987189742	-1.0253060479740013	0.0	1.3194354775929498	-0.8490428783986006	0.0	1.5067005554314639	-1.0431659024718432	0.0	1.4487773472785532	-1.0400109093512746	0.0
106	3.5630252100840334	0.9033375874294516	-1.0732620255535539	0.0	0.6819792328177399	-1.0104717269017773	0.0	1.2588077033747849	-0.8946170611355991	0.0	0.7607597658907073	-0.9239511719392136	0.0			0.0	1.4493984375	-0.841671875	0.0	1.0383134766240651	-1.0138623047163944	0.0	1.1310084883175362	-0.9795113720079486	0.0	1.4456063999181918	-0.9451183881770572	0.0	1.182802734374961	-0.8070253906246891	0.0	1.5984316231032918	-0.8895709643504671	0.0	1.2518017578125138	-0.5681826171878814	0.0	1.2527345779213541	-1.0009405935541524	0.0	0.9251176681802785	-0.7193996008834482	0.0	0.924543942773516	-0.2148455623630504	0.0	0.9374806386895762	-0.41671036481397394	0.0	0.4848192102304562	-0.9271081017614428	0.0	0.26604760145078077	-1.0682002059849935	0.0	0.7747190666207404	-1.0344548235339142	0.0	1.3356868158810622	-0.8533521908649996	0.0	1.5024317123880273	-1.05219508683825	0.0	1.4325339135630912	-1.0471911270217953	0.0
107	3.5966386554621845	0.9084926821292361	-1.0788221443936123	0.0	0.6869524359943568	-1.0113770660486368	0.0	1.354332549370491	-0.9323768059609193	0.0	0.7607597657343442	-0.9239511719014253	0.0			0.0	1.4493984375	-0.841671875	0.0	1.0383134766064215	-1.0138623047081137	0.0	1.1310614607459697	-0.9788923162749564	0.0	1.428609805707552	-0.950322470628925	0.0	1.1828027343749823	-0.8070253906247126	0.0	1.6301285577717683	-0.9233658729823228	0.0	1.2518017578124678	-0.568182617187157	0.0	1.2659392571174486	-1.0002730331351282	0.0	0.9306068076771575	-0.7206185342120608	0.0	0.9285385774471242	-0.21561210329006494	0.0	0.9411378244096957	-0.41874972884341133	0.0	0.4925612220778982	-0.9322476677224334	0.0	0.2508676357870706	-1.0697878101910587	0.0	0.8350952172257882	-1.0393801625609698	0.0	1.3476663777333793	-0.8598738908302997	0.0	1.5071081592984552	-1.0587787643567945	0.0	1.4294360581852334	-1.0530979978081105	0.0
108	3.630252100840336	0.9129231476229851	-1.0837124396022886	0.0	0.6889328428687332	-1.0117375861614224	0.0	1.4063943408761215	-0.9597968113312971	0.0	0.760759765640294	-0.9239511718786961	0.0			0.0	1.4493984375	-0.841671875	0.0	1.0383134765872872	-1.0138623046991335	0.0	1.1310825542727085	-0.9786457986397374	0.0	1.4188818686248186	-0.9582606014078159	0.0	1.1828027343749958	-0.8070253906247997	0.0	1.6461994101175779	-0.9398440209284801	0.0	1.2518017578124574	-0.5681826171869505	0.0	1.2699678649287172	-1.0004824070063008	0.0	0.9352638863369829	-0.7208914270141289	0.0	0.9333546513054459	-0.21661265089781287	0.0	0.9462519456848596	-0.4182812342610101	0.0	0.49612769829018694	-0.9381033962343636	0.0	0.2423102038587695	-1.0705555071222725	0.0	0.8809592335943326	-1.0411711209764354	0.0	1.3563223233481347	-0.8673544111507847	0.0	1.5144715620340512	-1.063105577932128	0.0	1.433341989342216	-1.0571812196258825	0.0
109	3.6638655462184873	0.9147702433448203	-1.0886893638723183	0.0	0.689143463119067	-1.0117759281789802	0.0	1.426423700083502	-0.9755732998608511	0.0	0.7607597655973433	-0.9239511718683162	0.0			0.0	1.4493984375	-0.841671875	0.0	1.0383134765727005	-1.0138623046922874	0.0	1.1310847966596527	-0.9786195809819538	0.0	1.4147541656632463	-0.9652296345328893	0.0	1.1828027343750027	-0.8070253906248896	0.0	1.6514835358715034	-0.9447276306190565	0.0	1.2518017578124645	-0.5681826171870135	0.0	1.2691215725037834	-1.0009972872620736	0.0	0.9389218424654237	-0.7214664081535733	0.0	0.938851897951333	-0.21711207169724406	0.0	0.9519685659569253	-0.4165771435169498	0.0	0.495398345585787	-0.9446878544231755	0.0	0.2414551767079085	-1.0706717248736104	0.0	0.9084575388614042	-1.0411849637296167	0.0	1.3628026342019393	-0.8750258968595457	0.0	1.5206564395685351	-1.0653558813751938	0.0	1.439199382938676	-1.0594642417158666	0.0
110	3.6974789915966384	0.9139242108262942	-1.0936519165674936	0.0	0.6885666829031896	-1.0116709290910018	0.0	1.4278256778837088	-0.9822864972892992	0.0	0.7607597655870756	-0.9239511718658348	0.0			0.0	1.4493984375	-0.841671875	0.0	1.0383134765639268	-1.0138623046881696	0.0	1.1310786522233771	-0.9786913775757005	0.0	1.4140519893626489	-0.9699182305938644	0.0	1.182802734375005	-0.8070253906249565	0.0	1.6508891155249443	-0.9435072959689523	0.0	1.251801757812477	-0.5681826171871708	0.0	1.2664912611817432	-1.0014993554843654	0.0	0.9415733507527917	-0.7231990621553717	0.0	0.9448488526112295	-0.21676963028535737	0.0	0.9577211478323912	-0.41456047038416827	0.0	0.49149293923308657	-0.9515127110023233	0.0	0.24593331278488978	-1.0702860375434442	0.0	0.9209548274936222	-1.0404614752947956	0.0	1.3677557782187817	-0.8824686566230828	0.0	1.5246684542388722	-1.0661022513490914	0.0	1.4442818950170095	-1.060388131061995	0.0
111	3.7310924369747895	0.9118312173855487	-1.0978395579612668	0.0	0.6878204901122023	-1.0115350895574624	0.0	1.4211599627155902	-0.9834469928777387	0.0	0.7607597655930699	-0.9239511718672834	0.0			0.0	1.4493984375	-0.841671875	0.0	1.0383134765599202	-1.0138623046862891	0.0	1.1310707035929424	-0.9787842623578563	0.0	1.4149533373618266	-0.9724003768511577	0.0	1.1828027343750045	-0.8070253906249958	0.0	1.6480284100557114	-0.9400965163599926	0.0	1.2518017578124883	-0.5681826171873245	0.0	1.263834217771321	-1.00186066628478	0.0	0.9433648701515999	-0.725999526368388	0.0	0.9509833848067677	-0.21575889734584475	0.0	0.9631543455036682	-0.41259094561738796	0.0	0.4863187656208506	-0.9575038711947131	0.0	0.2517764629899803	-1.0695183316809393	0.0	0.9238876428554693	-1.039628827926651	0.0	1.3714283251344377	-0.8892867123509899	0.0	1.5273358400369343	-1.0662707191116738	0.0	1.447673165932466	-1.0605016836278514	0.0
112	3.764705882352941	0.910494277198526	-1.1004303165807916	0.0	0.6872057022818142	-1.0114231714443256	0.0	1.412962446370728	-0.9820022005814497	0.0	0.7607597656041598	-0.9239511718699636	0.0			0.0	1.4493984375	-0.841671875	0.0	1.0383134765589623	-1.0138623046858395	0.0	1.1310641548984284	-0.9788607900810559	0.0	1.4162734191544972	-0.9733019623904667	0.0	1.1828027343750032	-0.8070253906250131	0.0	1.645004058638138	-0.9367018193913864	0.0	1.251801757812496	-0.5681826171874355	0.0	1.261883066061839	-1.00206638293727	0.0	0.9445366903445198	-0.7290269270240256	0.0	0.9567904440056101	-0.21446605716747658	0.0	0.968071939326847	-0.4105893056861405	0.0	0.48175577409474946	-0.961563837130282	0.0	0.2562968615142378	-1.068528898683006	0.0	0.9220808970868718	-1.0389757855706947	0.0	1.373965626673026	-0.8949816798104528	0.0	1.529989225061819	-1.066595525115065	0.0	1.4494512536942883	-1.0602500893707132	0.0
113	3.7983193277310923	0.911144921359461	-1.1012240850196735	0.0	0.6868110415649549	-1.0113513260378637	0.0	1.406344468852938	-0.9798717800216891	0.0	0.7607597656143609	-0.9239511718724289	0.0			0.0	1.4493984375	-0.841671875	0.0	1.0383134765595214	-1.013862304686102	0.0	1.1310599510778634	-0.9789099167639403	0.0	1.417410167885402	-0.9733078241698744	0.0	1.1828027343750018	-0.8070253906250167	0.0	1.642728189536664	-0.9342297240594327	0.0	1.2518017578125002	-0.5681826171874987	0.0	1.2607497698544088	-1.0021523634215301	0.0	0.9454006094994899	-0.7313025164416371	0.0	0.9619923599867468	-0.21299240566556443	0.0	0.9724848927053107	-0.4083531963278756	0.0	0.47889496882112687	-0.9632214268628959	0.0	0.25881010177631536	-1.0674804793080748	0.0	0.9188051565833425	-1.0385730892391183	0.0	1.375738142739824	-0.8991977101098619	0.0	1.5336593223742532	-1.0673552985114472	0.0	1.4500836518645468	-1.0599156478487826	0.0
114	3.8319327731092434	0.9136507698793953	-1.1007669413128598	0.0	0.6866137375898891	-1.011315408138805	0.0	1.4021642022950727	-0.978033166506504	0.0	0.7607597656214425	-0.9239511718741403	0.0			0.0	1.4493984375	-0.841671875	0.0	1.038313476560556	-1.0138623046865876	0.0	1.1310578495058725	-0.9789344768219459	0.0	1.4181645167006443	-0.9729423492463545	0.0	1.1828027343750007	-0.8070253906250136	0.0	1.641375374038289	-0.9328055050238488	0.0	1.2518017578125018	-0.5681826171875253	0.0	1.2602598730691494	-1.002165717338203	0.0	0.9462900966076265	-0.7322635988000222	0.0	0.9666589131212416	-0.2110124116185047	0.0	0.9765568446432811	-0.4059046431198773	0.0	0.47777829793288074	-0.9627615764475106	0.0	0.25957947493229644	-1.0664034630189811	0.0	0.9158068818551172	-1.0383823922124562	0.0	1.3773745424761652	-0.9019580729216784	0.0	1.5388133023142292	-1.0683962043991453	0.0	1.4500724739684552	-1.0596372466732011	0.0
115	3.865546218487395	0.9168555936288915	-1.1000245611323882	0.0	0.6865511394210146	-1.011304012552345	0.0	1.40011814984873	-0.9768111086503412	0.0	0.7607597656253258	-0.9239511718750787	0.0			0.0	1.4493984375	-0.841671875	0.0	1.0383134765615076	-1.013862304687034	0.0	1.1310571827923446	-0.9789422689344726	0.0	1.4185574711003777	-0.9725221994158395	0.0	1.182802734375	-0.8070253906250086	0.0	1.6407686142232714	-0.9321981347407452	0.0	1.251801757812502	-0.5681826171875295	0.0	1.2601677565276557	-1.0021454878060418	0.0	0.947418101836156	-0.7318220923000659	0.0	0.9710263002213646	-0.2081813388338055	0.0	0.9804270850533272	-0.40349532585170905	0.0	0.47768412364304236	-0.9608930354452083	0.0	0.25848576453792477	-1.0653177395906768	0.0	0.9137321443251084	-1.038330662750198	0.0	1.379436011112977	-0.9035034796227983	0.0	1.5454832826712939	-1.0693627715372231	0.0	1.4497986436718984	-1.0594570976182975	0.0
116	3.899159663865546	0.919227119688379	-1.100054169798131	0.0	0.6865610376076502	-1.0113058144537088	0.0	1.3995051580409577	-0.9761732969609686	0.0	0.7607597656268409	-0.9239511718754448	0.0			0.0	1.4493984375	-0.841671875	0.0	1.0383134765621682	-1.013862304687344	0.0	1.1310572882763559	-0.9789410368259759	0.0	1.4186952165043702	-0.9721928440035721	0.0	1.1828027343749996	-0.8070253906250042	0.0	1.6406335392365068	-0.9320918372074396	0.0	1.2518017578125016	-0.5681826171875233	0.0	1.260264697422565	-1.0021168534048774	0.0	0.9487730470272783	-0.7301155449035132	0.0	0.9752891527644428	-0.20447821446623946	0.0	0.9840755375034681	-0.40135135243295544	0.0	0.4776655796982327	-0.958389886156815	0.0	0.25477594275568033	-1.0644507581779097	0.0	0.9125984427179087	-1.038350256311583	0.0	1.3821613485589908	-0.9039428512641341	0.0	1.5535158164671805	-1.0699938041997317	0.0	1.4494902755133376	-1.059366114299293	0.0
117	3.9327731092436973	0.9195058920480051	-1.1016920148512723	0.0	0.6865981900200112	-1.0113125778084713	0.0	1.3996490963627777	-0.9759487402145072	0.0	0.7607597656269698	-0.9239511718754759	0.0			0.0	1.4493984375	-0.841671875	0.0	1.0383134765625304	-1.0138623046875141	0.0	1.1310576840454005	-0.9789364121583902	0.0	1.4186904515103542	-0.9719898314622585	0.0	1.1828027343749996	-0.8070253906250012	0.0	1.6407296105950786	-0.9322210521275873	0.0	1.251801757812501	-0.5681826171875145	0.0	1.2604135209931768	-1.0020924756408296	0.0	0.9502215840087049	-0.7272462301689073	0.0	0.9795849049007498	-0.20010336906094545	0.0	0.9873710854972717	-0.3995774015287976	0.0	0.47701150024780486	-0.9558539018363299	0.0	0.2479589114153817	-1.064166866770005	0.0	0.9121590694101999	-1.0383940038184856	0.0	1.3854940542765855	-0.90320569437388	0.0	1.5626059191318882	-1.070247911196987	0.0	1.4492508531459556	-1.059336485272741	0.0
